<svg width="220" height="220" viewBox="0 0 220 220" fill="none" xmlns="http://www.w3.org/2000/svg">
<path d="M93.8307 62.7987C64.4294 8.78294 17.4182 6.39423 15.4788 10.247C13.5394 14.0998 17.9612 53.552 20.3661 72.5076C21.9176 84.6053 26.8825 88.7663 30.3734 90.7697C28.3564 93.929 27.1928 97.7047 27.1928 101.712C27.1928 113.27 36.6571 122.671 48.2935 122.671C59.93 122.671 69.3942 113.27 69.3942 101.712C69.3942 100.479 69.2391 99.3229 69.0839 98.167C90.1071 98.7064 110.044 92.6961 93.8307 62.7987Z" fill="#F48FB1"/>
<path d="M126.646 62.7902C156.047 8.77445 203.058 6.30868 204.998 10.2385C206.937 14.1683 202.515 53.5435 200.11 72.4991C198.559 84.5968 193.594 88.7578 190.103 90.7612C192.12 93.9205 193.284 97.6962 193.284 101.703C193.284 113.261 183.819 122.662 172.183 122.662C160.547 122.662 151.082 113.261 151.082 101.703C151.082 100.47 151.237 99.3144 151.393 98.1585C130.369 98.6979 110.432 92.6876 126.646 62.7902Z" fill="#F48FB1"/>
<path d="M182.423 134.373L174.898 156.565V156.642C174.898 156.642 173.812 159.802 172.571 163.577C170.631 169.434 168.071 176.831 167.994 176.985C163.882 184.151 158.142 190.47 151.237 195.555L151.16 195.632C145.73 199.639 139.601 202.876 132.929 205.11C132.774 205.187 132.542 205.264 132.386 205.341C129.671 206.266 126.801 206.959 123.931 207.499C120.44 208.192 116.871 208.578 113.225 208.732C112.294 208.809 111.286 208.809 110.355 208.809C110.355 208.809 110.355 208.809 110.277 208.809C109.501 208.809 108.726 208.809 107.95 208.732C104.149 208.578 100.347 208.192 96.7014 207.499C93.7535 206.959 90.8832 206.189 88.0904 205.264C72.4976 200.102 59.6975 189.699 52.2502 176.369V176.291L47.906 163.577L45.8114 157.336V157.259L37.9762 134.836C36.6574 130.829 36.1144 126.745 36.2695 122.661C36.5798 116.111 38.752 109.716 42.7859 104.322L66.9121 71.8816C70.403 67.1042 75.1352 63.4826 80.4104 61.1709C84.5995 59.3216 89.1765 58.397 93.9086 58.397H127.965C138.903 58.397 149.143 63.7138 155.427 72.5751L178.079 104.553C184.285 113.183 185.836 124.279 182.423 134.373Z" fill="#8B6C60"/>
<path d="M146.827 171.012C142.406 152.673 127.744 133.717 110.367 133.717C92.9119 133.717 78.25 152.673 73.9057 171.012C65.3724 165.541 56.0632 163.075 47.9177 163.769L52.262 176.483V176.56C59.7093 189.89 72.5094 200.293 88.1022 205.455C90.7398 206.534 93.6877 207.305 96.7907 207.844C100.282 208.538 104.083 208.846 107.962 208.923C108.737 208.923 109.513 209 110.289 209C110.289 209 110.289 209 110.367 209C111.297 209 112.306 209 113.237 208.923C116.961 208.846 120.529 208.461 123.865 207.844C126.89 207.305 129.761 206.534 132.398 205.455C132.553 205.378 132.786 205.301 132.941 205.224C139.613 202.99 145.741 199.753 151.172 195.747C151.249 195.747 151.249 195.747 151.249 195.669C158.153 190.584 163.817 184.265 168.006 177.099C168.083 176.945 170.566 169.548 172.583 163.692C164.515 163.152 155.283 165.618 146.827 171.012Z" fill="#F9E6D8"/>
<path d="M131.067 193.323C124.473 195.403 117.104 196.867 110.199 196.636C103.295 196.867 96.0028 195.48 89.4089 193.4C72.73 188.006 60.7057 178.451 72.3421 181.61C75.9106 182.612 79.7894 182.997 83.5906 182.997C97.0889 183.151 110.199 178.682 110.199 178.682C110.199 178.682 123.31 183.151 136.808 182.997C140.609 182.92 144.41 182.535 148.056 181.61C159.77 178.374 147.746 187.929 131.067 193.323Z" fill="#0D0B0A"/>
<path d="M136.809 182.92C135.645 186.773 133.628 190.317 130.99 193.322C125.948 199.101 118.501 202.723 110.2 202.723C101.899 202.723 94.452 199.101 89.4096 193.399C86.772 190.471 84.755 186.927 83.5914 182.997C97.0896 183.151 110.2 172.517 110.2 172.517C110.2 172.517 123.31 183.074 136.809 182.92Z" fill="#F48FB1"/>
<path d="M87.3921 126.207C88.5558 119.734 84.1339 113.57 73.9715 113.955C64.1969 114.34 57.9908 123.664 56.8271 130.137C55.6635 136.609 64.1193 134.066 73.7387 135.839C83.3582 137.611 86.2285 132.679 87.3921 126.207Z" fill="#F9E6D8"/>
<path d="M133.084 125.128C131.921 118.655 136.342 112.491 146.505 112.876C156.28 113.261 162.486 122.585 163.649 129.058C164.813 135.53 156.357 132.988 146.738 134.76C137.118 136.455 134.248 131.524 133.084 125.128Z" fill="#F9E6D8"/>
<path d="M80.2551 65.8727C80.7981 64.2546 74.4369 37.5164 68.929 30.8126C63.421 24.1088 97.3994 59.4001 97.3994 59.4001L80.2551 65.8727Z" fill="#8B6C60"/>
<path d="M141.618 64.8718C141.075 63.2536 147.436 36.5154 152.944 29.8116C158.452 23.1078 124.473 58.3991 124.473 58.3991L141.618 64.8718Z" fill="#8B6C60"/>
<path d="M95.8478 153.176C95.8478 145.625 102.287 144.161 110.277 144.161C118.267 144.161 124.706 145.548 124.706 153.176C124.706 160.805 113.458 171.13 110.277 171.13C106.709 171.053 95.8478 160.728 95.8478 153.176Z" fill="#24201B"/>
<path d="M106.712 155.566C106.712 157.492 104.617 159.033 102.057 159.033C99.4974 159.033 97.4028 157.492 97.4028 155.566C97.4028 153.64 99.4974 149.71 102.057 149.71C104.617 149.71 106.712 153.64 106.712 155.566Z" fill="#0D0B0A"/>
<path d="M122.69 155.566C122.69 157.492 120.595 159.033 118.035 159.033C115.475 159.033 113.381 157.492 113.381 155.566C113.381 153.64 115.475 149.71 118.035 149.71C120.595 149.71 122.69 153.64 122.69 155.566Z" fill="#0D0B0A"/>
<path d="M78.6973 140C77.5336 140.386 76.1373 140.694 74.6633 140.925C70.0863 141.541 64.8112 140.463 60.2342 136.687C59.4584 136.07 58.6826 135.3 57.9069 134.452C55.1141 131.293 56.3553 126.67 60.2342 125.052C61.1651 124.666 62.2511 124.281 63.2596 123.973C67.8366 122.74 73.3445 122.74 78.6197 126.824C79.5506 127.594 80.404 128.365 81.1022 129.058C85.6016 133.759 84.6707 137.997 78.6973 140Z" fill="white"/>
<path d="M81.8062 128.442C81.0305 127.594 80.1771 126.823 79.2462 126.13C74.5916 122.508 69.1613 121.507 63.1104 123.125C62.1795 123.356 61.171 123.741 59.9298 124.204C57.7576 125.128 56.2061 126.901 55.7406 129.135C55.2752 131.216 55.8182 133.373 57.2922 135.068C58.0679 135.916 58.8437 136.764 59.697 137.38C63.3431 140.385 67.6874 142.003 72.1868 142.003C73.0401 142.003 73.971 141.926 74.8244 141.849C76.4535 141.618 77.8499 141.31 79.0911 140.848C83.0475 139.461 84.3662 137.38 84.7541 135.839C85.0644 134.221 84.9093 131.678 81.8062 128.442ZM58.611 133.913C57.5249 132.68 57.0594 131.139 57.4473 129.597C57.8352 127.979 58.9988 126.592 60.6279 125.899C61.7916 125.436 62.7225 125.128 63.5758 124.897C63.8086 124.82 64.0413 124.82 64.3516 124.82C62.9552 126.438 61.7916 128.442 61.3261 130.83C60.9382 132.911 61.171 134.837 61.714 136.687C61.4037 136.455 61.0934 136.301 60.8607 136.147C60.0849 135.377 59.3091 134.683 58.611 133.913ZM82.9699 135.377C82.582 136.918 81.0305 138.228 78.4705 139.152C78.1602 139.229 77.7723 139.306 77.462 139.383C78.548 137.919 79.4014 136.147 79.7893 134.144C80.0996 132.294 80.022 130.522 79.6341 128.904C79.9444 129.135 80.2547 129.443 80.4874 129.675C82.5044 131.755 83.3578 133.758 82.9699 135.377Z" fill="#0D0B0A"/>
<path d="M141.308 139.227C142.472 139.612 143.868 139.921 145.342 140.152C149.919 140.768 155.194 139.689 159.771 135.914C160.547 135.297 161.323 134.527 162.098 133.679C164.891 130.52 163.65 125.897 159.771 124.278C158.84 123.893 157.754 123.508 156.746 123.2C152.169 121.967 146.661 121.967 141.385 126.051C140.455 126.821 139.601 127.592 138.903 128.285C134.404 132.986 135.335 137.224 141.308 139.227Z" fill="white"/>
<path d="M160.546 124.28C159.305 123.74 158.296 123.432 157.365 123.201C151.314 121.506 145.884 122.507 141.229 126.206C140.299 126.9 139.445 127.67 138.669 128.518C135.566 131.754 135.411 134.374 135.799 135.915C136.187 137.456 137.506 139.537 141.462 140.924C142.626 141.309 144.022 141.694 145.729 141.925C146.582 142.079 147.513 142.079 148.366 142.079C152.866 142.079 157.21 140.461 160.856 137.456C161.71 136.763 162.485 135.992 163.261 135.144C164.735 133.526 165.356 131.369 164.813 129.211C164.27 126.977 162.796 125.204 160.546 124.28ZM142.005 139.151C139.445 138.304 137.894 136.994 137.506 135.376C137.118 133.757 137.971 131.754 139.988 129.596C140.221 129.288 140.609 129.057 140.842 128.826C140.454 130.444 140.376 132.216 140.686 134.066C141.074 136.069 141.85 137.841 143.014 139.305C142.703 139.305 142.316 139.228 142.005 139.151ZM161.865 133.912C161.167 134.759 160.391 135.453 159.615 136.069C159.382 136.3 159.072 136.454 158.762 136.608C159.305 134.836 159.537 132.833 159.15 130.752C158.684 128.364 157.598 126.36 156.124 124.742C156.357 124.819 156.59 124.742 156.9 124.819C157.753 125.05 158.684 125.358 159.848 125.821C161.477 126.514 162.64 127.824 163.028 129.519C163.416 131.061 162.951 132.679 161.865 133.912Z" fill="#0D0B0A"/>
</svg>
