<svg width="220" height="220" viewBox="0 0 220 220" fill="none" xmlns="http://www.w3.org/2000/svg">
<path d="M116.858 25.1465C113.293 21.5093 113.507 20.297 113.649 20.083C114.719 17.7296 113.721 14.8769 111.296 13.8072C108.943 12.7374 106.09 13.7359 105.021 16.1606C103.88 18.6567 103.951 21.0814 104.664 23.3636C100.599 20.5109 96.5344 16.3032 96.7484 14.3064C97.0336 11.739 95.1795 9.38555 92.6123 9.02896C90.045 8.7437 87.6917 10.5979 87.3352 13.1653C86.6933 18.5141 90.2589 23.2923 93.9672 26.8581C65.6562 33.9184 44.6904 58.8079 44.6904 88.5468C44.6904 123.777 74.0711 152.304 110.298 152.304C146.524 152.304 175.905 123.777 175.905 88.5468C175.905 55.5273 150.019 28.3557 116.858 25.1465Z" fill="#80A6CB"/>
<path d="M144.104 150.171C146.199 145.672 146.246 141.257 144.211 140.309C142.176 139.362 138.828 142.241 136.734 146.74C134.64 151.24 134.592 155.655 136.628 156.603C138.663 157.55 142.01 154.671 144.104 150.171Z" fill="#0D0B0A"/>
<path d="M85.7906 156.605C87.8259 155.658 87.7781 151.242 85.684 146.743C83.5898 142.244 80.2423 139.364 78.207 140.312C76.1718 141.259 76.2195 145.675 78.3137 150.174C80.4078 154.673 83.7554 157.552 85.7906 156.605Z" fill="#0D0B0A"/>
<path d="M82.2006 148.595L109.014 207.217C110.084 209.641 113.007 209.57 114.077 207.145L140.106 148.381C144.385 138.682 138.609 126.986 129.481 126.986H92.8261C83.5555 126.986 77.7079 138.896 82.2006 148.595Z" fill="#24201B"/>
<path d="M123.633 122.636C119.069 122.636 114.933 123.849 111.581 125.774C108.229 123.849 104.022 122.636 99.5294 122.636C88.4047 122.636 79.348 129.554 79.348 138.041C79.348 146.527 88.4047 153.445 99.5294 153.445C104.093 153.445 108.229 152.233 111.581 150.307C114.933 152.233 119.069 153.445 123.633 153.445C134.758 153.445 143.814 146.527 143.814 138.041C143.814 129.554 134.758 122.636 123.633 122.636Z" fill="white"/>
<path d="M175.406 114.364C183.834 114.364 190.667 103.476 190.667 90.0447C190.667 76.6137 183.834 65.7258 175.406 65.7258C166.977 65.7258 160.145 76.6137 160.145 90.0447C160.145 103.476 166.977 114.364 175.406 114.364Z" fill="#E98F5B"/>
<path d="M185.204 90.7161C185.782 84.4407 183.072 79.0603 179.15 78.6988C175.228 78.3372 171.58 83.1313 171.001 89.4068C170.423 95.6822 173.133 101.063 177.055 101.424C180.977 101.786 184.625 96.9916 185.204 90.7161Z" fill="#0D0B0A"/>
<path d="M45.2608 114.364C53.6891 114.364 60.5216 103.476 60.5216 90.0447C60.5216 76.6137 53.6891 65.7258 45.2608 65.7258C36.8325 65.7258 30 76.6137 30 90.0447C30 103.476 36.8325 114.364 45.2608 114.364Z" fill="#E98F5B"/>
<path d="M45.8064 101.407C49.7283 101.045 52.4387 95.6651 51.8602 89.3896C51.2817 83.1142 47.6334 78.32 43.7115 78.6816C39.7896 79.0432 37.0792 84.4235 37.6577 90.699C38.2361 96.9744 41.8844 101.769 45.8064 101.407Z" fill="#0D0B0A"/>
</svg>
