<svg width="220" height="220" viewBox="0 0 220 220" fill="none" xmlns="http://www.w3.org/2000/svg">
<path d="M10 49.3721C10 64.483 28.75 76.7428 51.8103 76.7428C64.6695 76.7428 76.2356 72.8938 83.9224 66.9065C90.0287 62.1308 93.6207 56.0009 93.6207 49.3721C93.6207 34.2612 74.8707 22.0014 51.8103 22.0014C31.4799 22.0014 14.5259 31.5526 10.7902 44.1688C10.2155 45.8795 10 47.5901 10 49.3721Z" fill="#24201B"/>
<path d="M210 49.3707C210 64.4817 191.25 76.7415 168.19 76.7415C155.331 76.7415 143.764 72.8925 136.078 66.9051C130.115 62.2008 126.451 56.0709 126.451 49.3707C126.451 34.2598 145.201 22 168.262 22C188.592 22 205.546 31.5512 209.282 44.1674C209.785 45.8781 210 47.5888 210 49.3707Z" fill="#24201B"/>
<path d="M210 49.3712C210 64.4821 202.528 89.5006 179.468 89.5006C166.609 89.5006 143.764 72.8929 136.149 66.9055C136.077 66.5492 136.005 66.264 135.934 65.9076C133.276 52.0797 148.29 37.539 169.482 33.6187C186.508 30.4112 202.385 34.973 209.281 44.1679C209.784 45.8785 210 47.5892 210 49.3712Z" fill="#F48FB1"/>
<path d="M10 49.3712C10 64.4821 17.4713 89.5006 40.5316 89.5006C53.3908 89.5006 76.2356 72.8929 83.8505 66.9055C83.9224 66.5492 83.9942 66.264 84.0661 65.9076C86.7241 52.0797 71.7097 37.539 50.5172 33.6187C33.4914 30.4112 17.6149 34.973 10.7184 44.1679C10.2155 45.8785 10 47.5892 10 49.3712Z" fill="#F48FB1"/>
<path d="M10 121.303C10 69.0566 57.4138 22.0845 110 22.0845C162.586 22.0845 210 69.1279 210 121.303C210 173.479 162.658 197.001 110 197.001C57.3419 197.001 10 173.479 10 121.303Z" fill="#24201B"/>
<path d="M64.8842 121.004C54.6112 121.004 46.2061 112.664 46.2061 102.472C46.2061 92.2789 54.6112 83.9394 64.8842 83.9394C75.1572 83.9394 83.5624 92.2789 83.5624 102.472C83.5624 112.664 75.1572 121.004 64.8842 121.004ZM64.8842 88.6438C57.1974 88.6438 50.9474 94.8449 50.9474 102.472C50.9474 110.098 57.1974 116.3 64.8842 116.3C72.571 116.3 78.821 110.098 78.821 102.472C78.821 94.8449 72.571 88.6438 64.8842 88.6438Z" fill="#5CC7DC"/>
<path d="M151.954 121.004C141.681 121.004 133.276 112.664 133.276 102.472C133.276 92.2789 141.681 83.9394 151.954 83.9394C162.227 83.9394 170.632 92.2789 170.632 102.472C170.632 112.664 162.227 121.004 151.954 121.004ZM151.954 88.6438C144.267 88.6438 138.017 94.8449 138.017 102.472C138.017 110.098 144.267 116.3 151.954 116.3C159.641 116.3 165.891 110.098 165.891 102.472C165.891 94.8449 159.641 88.6438 151.954 88.6438Z" fill="#5CC7DC"/>
<path d="M110 110.1C102.817 110.1 96.9976 115.873 96.9976 123.001C96.9976 129.487 101.883 122.502 108.204 121.29V125.425C108.204 126.422 108.995 127.207 110 127.207C111.006 127.207 111.796 126.422 111.796 125.425V121.29C118.118 122.502 123.003 129.559 123.003 123.001C123.003 115.873 117.184 110.1 110 110.1Z" fill="#F48FB1"/>
</svg>
