<svg width="220" height="220" viewBox="0 0 220 220" fill="none" xmlns="http://www.w3.org/2000/svg">
<path d="M109.224 190.667C114.89 190.667 119.484 177.689 119.484 161.68C119.484 145.671 114.89 132.693 109.224 132.693C103.557 132.693 98.9639 145.671 98.9639 161.68C98.9639 177.689 103.557 190.667 109.224 190.667Z" fill="#995068"/>
<path d="M73.3816 55.5487C65.0792 79.2651 50.2294 120.571 48.1369 119.517C45.3695 118.002 11.9574 34.9287 10.0674 30.2513L73.3816 55.5487Z" fill="#80A6CB"/>
<path d="M209.662 30.0585C209.662 30.0585 174.36 117.875 171.525 119.39C168.69 120.971 140.678 39.3474 140.678 39.3474C140.678 39.3474 190.898 25.7105 209.662 30.0585Z" fill="#80A6CB"/>
<path d="M79.0517 39.3463C79.0517 39.3463 76.7567 46.066 73.3818 55.5525L10.0675 30.255C10 30.1233 10 30.0574 10 30.0574C28.7648 25.6435 79.0517 39.3463 79.0517 39.3463Z" fill="#393430"/>
<path d="M141.016 39.1446C141.016 39.1446 143.311 45.7984 146.686 55.3508L209.865 30.0533C209.932 29.9216 210 29.8557 210 29.8557C191.235 25.5077 141.016 39.1446 141.016 39.1446Z" fill="#393430"/>
<path d="M149.116 77.5518C147.766 77.5518 146.483 77.6177 145.133 77.7494C144.998 74.9166 144.526 72.1497 143.783 69.5146C139.463 54.0989 125.086 42.7678 108.009 42.7678C92.9565 42.7678 79.9966 51.5955 74.1917 64.376C72.3017 68.4605 71.2217 72.8744 70.9517 77.5518C56.6419 77.6177 44.2895 85.6549 38.1471 97.4472C38.6871 101.005 39.5646 104.694 40.9821 108.515C42.9395 114.049 45.842 119.846 49.6895 125.775C50.8369 127.159 51.9169 128.608 53.1994 130.057C54.6844 131.77 56.3044 133.483 58.1269 134.998C60.0843 136.645 62.2443 138.16 64.6068 139.346C68.9942 141.586 71.5592 145.868 73.5842 150.677C75.6767 155.75 77.0266 161.35 79.0516 165.829C85.9365 185 99.7739 184.407 109.494 173.933C109.561 173.867 109.831 173.142 109.899 173.01C109.899 173.208 110.169 173.933 110.304 173.933C120.024 184.407 133.928 185 140.746 165.829C142.771 161.35 144.121 155.684 146.213 150.611C148.171 145.802 150.803 141.52 155.191 139.346C158.296 137.831 160.928 135.789 163.223 133.549C165.181 131.704 166.868 129.728 168.488 127.751C169.028 127.093 169.501 126.434 170.041 125.775C173.956 119.846 176.79 114.049 178.748 108.515C180.165 104.43 181.178 100.478 181.65 96.7225C175.441 85.3255 163.223 77.5518 149.116 77.5518Z" fill="#393430"/>
<path d="M181.785 97.3166C175.508 85.9196 163.291 78.1459 149.183 78.1459C147.833 78.1459 146.483 78.2118 145.201 78.3435C145.066 75.5107 144.593 72.7438 143.851 70.1745C139.531 54.693 125.154 43.3618 108.076 43.3618C93.0239 43.3618 80.0641 52.2555 74.2591 64.9701C72.4367 69.0546 71.2892 73.4685 71.0867 78.1459C63.9318 78.2117 57.2493 80.1881 51.5794 83.7456C45.977 87.2371 41.3195 92.1122 38.2821 97.9095C35.3796 78.9364 43.277 63.1914 56.2369 52.1237C62.7843 46.4581 70.6817 42.0443 79.1191 39.0797C88.9065 35.5223 99.5038 33.9412 109.629 34.4682H110.371C120.496 33.9412 131.093 35.5223 140.881 39.0797C149.318 42.0443 157.216 46.4581 163.831 52.1237C176.588 63.0596 184.485 78.607 181.785 97.3166Z" fill="#BFC0C4"/>
<path d="M123.669 155.421C122.117 153.577 117.324 154.96 113.004 158.517C111.722 159.571 110.709 160.626 109.899 161.745C109.022 160.691 108.009 159.571 106.794 158.517C102.474 154.96 97.6819 153.577 96.1294 155.421C94.5769 157.266 96.8044 161.614 101.124 165.171C104.229 167.675 107.469 169.058 109.697 168.992C109.764 168.992 109.832 168.992 109.967 168.992C110.034 168.992 110.102 168.992 110.237 168.992C112.464 169.058 115.704 167.675 118.809 165.171C122.994 161.614 125.289 157.266 123.669 155.421Z" fill="#0D0B0A"/>
<path d="M155.731 112.731C146.079 115.3 139.464 111.479 137.236 107.724C135.144 104.298 135.751 100.28 138.991 96.92C141.016 94.8119 144.054 92.9014 148.104 91.5838C148.509 91.4521 148.981 91.3203 149.386 91.1886C158.161 88.6193 165.923 91.1227 167.611 97.0518C168.556 100.609 165.518 110.162 155.731 112.731Z" fill="#80A6CB"/>
<path d="M149.786 95.2727C149.786 101.729 147.357 106.933 144.388 106.933C141.622 106.933 139.327 102.519 138.99 96.722C141.014 94.6139 144.051 92.7034 148.099 91.3858C148.504 91.254 148.976 91.1223 149.381 90.9905C149.583 92.374 149.786 93.8233 149.786 95.2727Z" fill="#393430"/>
<path d="M153.092 102.256C156.819 102.256 159.84 101.047 159.84 99.5549C159.84 98.0632 156.819 96.8539 153.092 96.8539C149.366 96.8539 146.345 98.0632 146.345 99.5549C146.345 101.047 149.366 102.256 153.092 102.256Z" fill="white"/>
<path d="M63.9322 112.731C73.5846 115.3 80.1995 111.479 82.427 107.724C84.5194 104.298 83.9119 100.28 80.672 96.92C78.647 94.8119 75.6095 92.9014 71.5596 91.5838C71.1546 91.4521 70.6821 91.3203 70.2771 91.1886C61.5022 88.6193 53.7398 91.1227 52.0523 97.0518C51.1073 100.609 54.1448 110.162 63.9322 112.731Z" fill="#80A6CB"/>
<path d="M69.8654 95.1417C69.8654 101.598 72.2944 106.802 75.2633 106.802C78.0297 106.802 80.3238 102.388 80.6611 96.591C78.6369 94.4829 75.6006 92.5724 71.5522 91.2548C71.1474 91.1231 70.6751 90.9913 70.2703 90.8595C70.0678 92.1771 69.8654 93.6264 69.8654 95.1417Z" fill="#393430"/>
<path d="M68.1113 102.256C71.8377 102.256 74.8586 101.047 74.8586 99.5553C74.8586 98.0635 71.8377 96.8542 68.1113 96.8542C64.3848 96.8542 61.364 98.0635 61.364 99.5553C61.364 101.047 64.3848 102.256 68.1113 102.256Z" fill="white"/>
</svg>
